<svg width="1280" height="720" xmlns="http://www.w3.org/2000/svg" xmlns:xlink="http://www.w3.org/1999/xlink" overflow="hidden"><defs><clipPath id="clip0"><rect x="0" y="0" width="1280" height="720"/></clipPath></defs><g clip-path="url(#clip0)"><rect x="0" y="0" width="1280" height="720" fill="#FFFFFF"/><rect x="36.5001" y="112.5" width="1003" height="578" stroke="#2F528F" stroke-width="1.33333" stroke-miterlimit="8" fill="#9DC3E6"/><rect x="99.5001" y="440.5" width="223" height="62" stroke="#2F528F" stroke-width="1.33333" stroke-miterlimit="8" fill="#DBDBDB"/><text font-family="DengXian,DengXian_MSFontService,sans-serif" font-weight="700" font-size="37" transform="translate(113.171 484)">Verificatio<tspan font-size="37" x="172.833" y="0">n</tspan></text><rect x="99.5001" y="176.5" width="86" height="62" stroke="#2F528F" stroke-width="1.33333" stroke-miterlimit="8" fill="#DBDBDB"/><text font-family="DengXian,DengXian_MSFontService,sans-serif" font-weight="700" font-size="37" transform="translate(123.399 220)">UI</text><rect x="297.5" y="243.5" width="156" height="122" stroke="#2F528F" stroke-width="1.33333" stroke-miterlimit="8" fill="#DBDBDB"/><text font-family="DengXian,DengXian_MSFontService,sans-serif" font-weight="700" font-size="37" transform="translate(307.061 294)">File <tspan font-size="37" x="0" y="45">Storage</tspan></text><rect x="516.5" y="162.5" width="376" height="62" stroke="#2F528F" stroke-width="1.33333" stroke-miterlimit="8" fill="#DBDBDB"/><text font-family="DengXian,DengXian_MSFontService,sans-serif" font-weight="700" font-size="37" transform="translate(536.278 206)">Connection Module</text><rect x="416.5" y="442.5" width="224" height="62" stroke="#2F528F" stroke-width="1.33333" stroke-miterlimit="8" fill="#DBDBDB"/><text font-family="DengXian,DengXian_MSFontService,sans-serif" font-weight="700" font-size="37" transform="translate(446.709 486)">Msg <tspan font-size="37" x="83.5" y="0">R</tspan><tspan font-size="37" x="106.667" y="0">ecv</tspan></text><rect x="416.5" y="557.5" width="224" height="62" stroke="#2F528F" stroke-width="1.33333" stroke-miterlimit="8" fill="#DBDBDB"/><text font-family="DengXian,DengXian_MSFontService,sans-serif" font-weight="700" font-size="37" transform="translate(444.209 601)">Msg Send</text><rect x="769.5" y="440.5" width="167" height="179" stroke="#2F528F" stroke-width="1.33333" stroke-miterlimit="8" fill="#DBDBDB"/><text font-family="DengXian,DengXian_MSFontService,sans-serif" font-weight="700" font-size="37" transform="translate(778.574 520)">Peer <tspan font-size="37" x="0" y="45">Handler</tspan></text><rect x="824.5" y="22.5001" width="190" height="62" stroke="#2F528F" stroke-width="1.33333" stroke-miterlimit="8" fill="#DBDBDB"/><text font-family="DengXian,DengXian_MSFontService,sans-serif" font-weight="700" font-size="37" transform="translate(856.54 66)">Tracker</text><path d="M99.5001 210.833 75.5007 210.833 78.8341 207.5 78.8341 588.787 75.5007 585.454 400.538 585.454 400.538 592.12 72.1674 592.12 72.1674 204.167 99.5001 204.167ZM397.204 578.787 417.204 588.787 397.204 598.787Z" fill="#4472C4"/><path d="M0-3.33333 104.464-3.33333 104.464 68.5218 101.13 65.1884 185.594 65.1884 185.594 71.8551 97.7971 71.8551 97.7971 0 101.13 3.33333 0 3.33333ZM182.261 58.5218 202.261 68.5218 182.261 78.5218Z" fill="#4472C4" transform="matrix(-1.83697e-16 -1 -1 1.83697e-16 211.022 440.761)"/><path d="M0-3.33333 227.229-3.33333 227.229 24.6551 220.563 24.6551 220.563 0 223.896 3.33333 0 3.33333ZM233.896 21.3218 223.896 41.3218 213.896 21.3218Z" fill="#4472C4" transform="matrix(1.83697e-16 1 1 -1.83697e-16 375.5 365.5)"/><path d="M208.167 441.022 208.167 301.167 281.79 301.167 281.79 307.833 211.5 307.833 214.833 304.5 214.833 441.022ZM278.457 294.5 298.457 304.5 278.457 314.5Z" fill="#4472C4"/><path d="M640.5 470.167 708.32 470.167 708.32 530.178 704.987 526.845 752.807 526.845 752.807 533.512 701.654 533.512 701.654 473.5 704.987 476.833 640.5 476.833ZM749.474 520.178 769.474 530.178 749.474 540.178Z" fill="#4472C4"/><path d="M0-3.33333 67.8203-3.33333 67.8203 58.5565 64.4869 55.2232 112.307 55.2232 112.307 61.8899 61.1536 61.8899 61.1536 0 64.4869 3.33333 0 3.33333ZM108.974 48.5565 128.974 58.5565 108.974 68.5565Z" fill="#4472C4" transform="matrix(1 0 0 -1 640.5 589.057)"/><path d="M769.474 533.512 701.654 533.512 701.654 473.5 704.987 476.834 657.167 476.834 657.167 470.167 708.32 470.167 708.32 530.178 704.987 526.845 769.474 526.845ZM660.5 483.5 640.5 473.5 660.5 463.5Z" fill="#4472C4"/><path d="M0-3.33333 67.8203-3.33333 67.8203 58.5565 64.4869 55.2232 112.307 55.2232 112.307 61.8899 61.1536 61.8899 61.1536 0 64.4869 3.33333 0 3.33333ZM108.974 48.5565 128.974 58.5565 108.974 68.5565Z" fill="#4472C4" transform="matrix(-1 1.22465e-16 1.22465e-16 1 769.474 530.5)"/><path d="M0 3.33333-24.0001 3.33333-20.6668 0-20.6668 139.217-24.0001 135.883 42.4986 135.883 42.4986 230.812 35.8319 230.812 35.8319 139.217 39.1652 142.55-27.3334 142.55-27.3334-3.33333 0-3.33333ZM49.1652 227.478 39.1652 247.478 29.1652 227.478Z" fill="#4472C4" transform="matrix(-1 0 0 1 891.665 193.5)"/><path d="M0-3.33333 123.125-3.33333 123.125 92.2898 116.458 92.2898 116.458 0 119.791 3.33333 0 3.33333ZM129.791 88.9564 119.791 108.956 109.791 88.9564Z" fill="#4472C4" transform="matrix(-1 1.22465e-16 1.22465e-16 1 824.291 53.5001)"/><path d="M701.167 162.457 701.167 50.1668 807.625 50.1668 807.625 56.8335 704.5 56.8335 707.833 53.5001 707.833 162.457ZM804.291 43.5001 824.291 53.5001 804.291 63.5001Z" fill="#4472C4"/></g></svg>